<?xml version="1.0" encoding="utf-8"?>
<!-- Generated by IcoMoon.io -->
<!DOCTYPE svg PUBLIC "-//W3C//DTD SVG 1.1//EN" "http://www.w3.org/Graphics/SVG/1.1/DTD/svg11.dtd">
<svg version="1.1" xmlns="http://www.w3.org/2000/svg" xmlns:xlink="http://www.w3.org/1999/xlink" width="32" height="32" viewBox="0 0 32 32">
<g>
</g>
	<path d="M23.147 17.813c0 0.213-0.107 0.427-0.213 0.64l-8 8c-0.213 0.213-0.427 0.213-0.64 0.213s-0.427-0.107-0.64-0.213l-4.693-4.693c-0.213-0.213-0.213-0.427-0.213-0.64s0.107-0.427 0.213-0.64l1.28-1.28c0.213-0.213 0.427-0.213 0.64-0.213s0.427 0.107 0.64 0.213l2.773 2.773 6.080-6.187c0.213-0.213 0.427-0.213 0.64-0.213s0.427 0.107 0.64 0.213l1.28 1.28c0.107 0.32 0.213 0.533 0.213 0.747z" fill="#000000"></path>
	<path d="M13.867 4.693h4.16v6.72h-4.16v-6.72z" fill="#000000"></path>
	<path d="M25.28 4.693v6.72h2.987v18.24h-24.64v-18.24h2.987v-6.72h-5.547v27.307h29.76v-27.307z" fill="#000000"></path>
	<path d="M25.28 0h-7.253v4.693h2.133v-2.347h2.987v2.347h2.133v-4.693z" fill="#000000"></path>
	<path d="M25.28 4.693h-2.133v4.373h-2.987v-4.373h-2.133v6.72h7.253v-6.72z" fill="#000000"></path>
	<path d="M13.867 0h-7.253v4.693h2.133v-2.347h3.093v2.347h2.027v-4.693z" fill="#000000"></path>
	<path d="M13.867 4.693h-2.027v4.373h-3.093v-4.373h-2.133v6.72h7.253v-6.72z" fill="#000000"></path>
</svg>
