<?xml version="1.0" encoding="utf-8"?>
<!-- Generated by IcoMoon.io -->
<!DOCTYPE svg PUBLIC "-//W3C//DTD SVG 1.1//EN" "http://www.w3.org/Graphics/SVG/1.1/DTD/svg11.dtd">
<svg version="1.1" xmlns="http://www.w3.org/2000/svg" xmlns:xlink="http://www.w3.org/1999/xlink" width="32" height="32" viewBox="0 0 32 32">
<g>
</g>
	<path d="M24.64 3.627c0 0.213-0.107 0.533-0.32 0.64l-11.627 11.733 11.627 11.627c0.213 0.213 0.32 0.427 0.32 0.64s-0.107 0.533-0.32 0.64l-1.493 1.493c-0.213 0.213-0.427 0.32-0.64 0.32s-0.533-0.107-0.64-0.32l-13.867-13.867c-0.213 0-0.32-0.32-0.32-0.533s0.107-0.533 0.32-0.64l13.867-13.867c0.213-0.213 0.427-0.32 0.64-0.32s0.533 0.107 0.64 0.32l1.493 1.493c0.213 0.213 0.32 0.427 0.32 0.64z" fill="#970504"></path>
</svg>
