<?xml version="1.0" standalone="no"?>
<!DOCTYPE svg PUBLIC "-//W3C//DTD SVG 1.1//EN" "http://www.w3.org/Graphics/SVG/1.1/DTD/svg11.dtd" >
<svg xmlns="http://www.w3.org/2000/svg">
<metadata>Generated by IcoMoon</metadata>
<defs>
<font id="icomoon" horiz-adv-x="512">
<font-face units-per-em="512" ascent="480" descent="-32" />
<missing-glyph horiz-adv-x="512" />
<glyph unicode="&#x20;" d="" horiz-adv-x="256" />
<glyph unicode="&#xe600;" d="M0 258.134h512v-68.267h-512v68.267zM221.867 480h68.266v-512h-68.267v512z" />
<glyph unicode="&#xe601;" d="M122.88 476.587c-23.894-3.413-39.254-10.24-39.254-10.24v-496.64h39.254v506.88zM438.613 324.693c0 59.734 6.827 112.64 6.827 112.64-87.040-40.96-133.12-5.12-206.506 27.306-32.427 13.654-63.147 17.067-88.746 15.36v-232.107c25.6 0 56.32-1.707 88.746-11.946 76.8-23.894 122.88-63.147 209.92-23.894 0 0-10.24 52.906-10.24 112.64z" />
<glyph unicode="&#xe602;" d="M122.88-14.933h264.534v40.96h-264.534v-40.96zM450.56 270.080h-20.48v-61.44h-348.16v61.44h-20.48c-34.133 0-61.44-27.306-61.44-61.44v-143.36c0-34.134 27.306-61.44 61.44-61.44h20.48v61.44h346.454v-61.44h20.48c34.133 0 61.44 27.306 61.44 61.44v143.36c0 34.133-27.307 61.44-59.733 61.44zM389.12 454.4h-266.24v-204.8h264.534v204.8z" />
<glyph unicode="&#xe603;" d="M204.8 480h102.4v-102.4h-102.4v102.4zM204.8 70.4h102.4v-102.4h-102.4v102.4zM204.8 275.2h102.4v-102.4h-102.4v102.4z" />
<glyph unicode="&#xe604;" d="M394.24 421.974c0-3.413-1.707-8.534-5.12-10.24l-186.026-187.733 186.026-186.026c3.413-3.413 5.12-6.827 5.12-10.24s-1.707-8.534-5.12-10.24l-23.894-23.894c-3.413-3.413-6.827-5.12-10.24-5.12s-8.534 1.707-10.24 5.12l-221.867 221.867c-3.413 0-5.12 5.12-5.12 8.534s1.707 8.534 5.12 10.24l221.867 221.866c3.413 3.413 6.827 5.12 10.24 5.12s8.534-1.706 10.24-5.12l23.894-23.893c3.413-3.413 5.12-6.827 5.12-10.24z" />
<glyph unicode="&#xe605;" d="M139.946 432.214l23.893 23.894c3.413 3.413 6.827 5.12 10.24 5.12s8.534-1.706 10.24-5.12l221.867-221.867c3.413-3.413 5.12-6.827 5.12-10.24s-1.707-8.534-5.12-10.24l-221.867-221.866c-3.413-3.413-6.827-5.12-10.24-5.12s-8.534 1.707-10.24 5.12l-23.893 23.894c-3.413 3.413-5.12 6.827-5.12 10.24s1.707 8.534 5.12 10.24l186.026 187.733-186.026 186.026c-3.413 3.413-5.12 6.827-5.12 11.947s1.707 6.827 5.12 10.24z" />
<glyph unicode="&#xe606;" d="M370.346 194.986c0-3.413-1.707-6.827-3.413-10.24l-128-128c-3.413-3.413-6.827-3.413-10.24-3.413s-6.827 1.707-10.24 3.413l-75.094 75.094c-3.413 3.413-3.413 6.827-3.413 10.24s1.707 6.827 3.413 10.24l20.48 20.48c3.413 3.413 6.827 3.413 10.24 3.413s6.827-1.707 10.24-3.413l44.374-44.373 97.28 98.987c3.413 3.413 6.827 3.413 10.24 3.413s6.827-1.707 10.24-3.413l20.48-20.48c1.707-5.12 3.413-8.534 3.413-11.947zM221.867 404.906h66.56v-107.52h-66.56v107.52zM404.48 404.906v-107.52h47.786v-291.84h-394.24v291.84h47.786v107.52h-88.746v-436.906h476.16v436.906zM404.48 480h-116.053v-75.094h34.134v37.546h47.786v-37.546h34.133v75.094zM404.48 404.906h-34.134v-69.974h-47.786v69.974h-34.133v-107.52h116.053v107.52zM221.867 480h-116.053v-75.094h34.134v37.546h49.493v-37.546h32.427v75.094zM221.867 404.906h-32.427v-69.974h-49.493v69.974h-34.133v-107.52h116.054v107.52z" />
<glyph unicode="&#xe607;" d="M288.426 152.32l151.893 201.387h-378.88l146.774-194.56v-151.893c0 0 80.214 22.187 80.214 49.493v95.574zM61.44 439.040h378.88v-51.2h-378.88v51.2z" />
<glyph unicode="&#xe608;" d="M0 445.866h512v-68.266h-512v68.266zM0 70.4h512v-68.267h-512v68.267zM0 258.134h512v-68.267h-512v68.267z" />
<glyph unicode="&#xe609;" d="M513.707 360.534l-49.493 47.786-295.253-296.96-121.174 122.88-49.493-49.493 170.667-170.666z" />
<glyph unicode="&#xe60a;" d="M245.76 480c-100.694 0-180.906-81.92-180.906-180.906 0-34.133 8.534-64.853 25.6-92.16v0l3.413-5.12c1.707-3.413 3.413-5.12 5.12-8.534l148.48-225.28 145.067 225.28c22.187 29.014 34.134 66.56 34.134 105.813 0 98.987-81.92 180.907-180.906 180.907z" />
<glyph unicode="&#xe60b;" d="M442.026 133.546c-3.413 0-5.12-1.707-5.12-5.12v-63.147c0-3.413-1.707-5.12-5.12-5.12h-353.28c-3.413 0-5.12 1.707-5.12 5.12v63.147c0 3.413-1.707 5.12-5.12 5.12h-63.147c-3.413 0-5.12-1.707-5.12-5.12v-134.827c0-3.413 1.706-5.12 5.12-5.12h63.147c3.413 0 6.826 0 10.24 0h353.28c3.413 0 6.827 0 10.24 0h63.147c3.413 0 5.12 1.707 5.12 5.12v134.827c0 3.413-1.707 5.12-5.12 5.12h-63.147zM433.493 311.040c1.707 1.707 1.707 3.413-1.707 3.413h-63.147c-3.413 0-5.12 1.707-5.12 5.12v136.534c0 3.413-1.707 5.12-5.12 5.12h-208.214c-3.413 0-5.12-1.706-5.12-5.12v-134.827c0-3.413-1.707-5.12-5.12-5.12h-61.44c-3.413 0-3.413-1.707-1.707-3.413l182.613-180.906c1.707-1.707 5.12-1.707 6.827 0l167.253 179.2z" />
<glyph unicode="&#xe60c;" d="M256 205.226l211.626 184.32h-423.253zM167.254 232.534l-167.254 143.36v-310.613zM315.733 206.933l-59.733-51.2-59.733 51.2-160.427-158.72h440.32zM344.747 232.534l167.253-167.254v310.613z" />
<glyph unicode="&#xe60d;" d="M448.853 290.56l27.306 30.72-40.96 8.534 20.48 35.84h-40.96l13.654 39.254-40.96-10.24 5.12 40.96-37.546-17.066-3.413 40.96-34.134-23.894-11.947 39.254-27.307-30.72-20.48 35.84-20.48-35.84-27.306 30.72-11.947-39.254-34.133 23.894-3.413-40.96-37.547 17.066 3.413-40.96-39.254 8.534 13.653-39.254h-40.96l20.48-35.84-40.96-6.827 27.306-30.72-37.547-17.067 34.133-23.893-34.133-23.893 37.547-17.067-27.306-30.72 40.96-8.534-20.48-35.84h40.96l-6.826-20.48-59.733-56.32 63.146-6.827 22.186-78.507 81.92 81.92 8.534-27.306 27.306 30.72 20.48-35.84 20.48 35.84 27.306-30.72 8.534 27.307 81.92-81.92 22.187 76.8 63.147 6.827-58.026 58.026-6.827 20.48h40.96l-20.48 35.84 40.96 8.534-27.306 30.72 37.546 17.066-34.133 23.893 34.134 23.893-39.254 17.067zM257.707 130.134c-66.56 0-119.466 52.906-119.466 119.466s52.906 119.466 119.466 119.466c66.56 0 119.466-52.906 119.466-119.466 0-64.853-54.613-119.466-119.466-119.466z" />
<glyph unicode="&#xe60e;" d="M0 222.293c0-141.654 116.053-257.707 257.707-257.707s257.707 116.053 257.707 257.707-116.053 257.707-257.707 257.707c-141.654 0-257.707-116.053-257.707-257.707zM81.92 222.293c0 34.134 10.24 64.853 25.6 90.454l240.64-240.64c-27.307-17.067-58.026-25.6-90.454-25.6-97.28 1.707-175.786 80.214-175.786 175.786zM431.786 222.293c0-34.134-10.24-64.853-25.6-90.454l-238.934 240.64c27.306 17.067 58.026 25.6 90.453 25.6 95.574 0 174.080-78.506 174.080-175.786z" />
<glyph unicode="&#xe60f;" d="M378.88 174.507c-34.134-34.133-34.134-68.267-68.267-68.267s-68.267 34.134-102.4 68.267-68.266 68.267-68.266 102.4 34.133 34.133 68.267 68.266-68.267 136.534-102.4 136.534-102.4-102.4-102.4-102.4c0-68.267 69.974-206.507 136.534-271.36 66.56-66.56 203.094-136.534 271.36-136.534 0 0 102.4 68.267 102.4 102.4s-100.693 134.827-134.827 100.693z" />
<glyph unicode="&#xe610;" d="M401.067 413.44h-285.014c-27.306 0-47.786-22.186-47.786-47.786v-15.36h380.587v15.36c0 25.6-20.48 47.786-47.786 47.786zM317.44 444.16l8.534-49.493h-133.12l6.827 49.493h117.76zM322.56 476.587h-126.293c-13.654 0-25.6-10.24-27.306-23.894l-10.24-66.56c-1.707-13.653 6.827-23.893 20.48-23.893h158.72c13.654 0 22.187 10.24 20.48 23.893l-8.534 66.56c-1.707 11.947-15.36 23.894-27.307 23.894v0zM409.6 317.866h-302.080c-17.067 0-30.72-13.654-29.013-32.426l25.6-285.014c1.707-17.067 17.067-32.426 34.133-32.426h237.226c17.067 0 32.426 13.654 34.134 32.426l25.6 285.014c5.12 17.066-8.534 32.426-25.6 32.426zM194.56 31.147h-47.786l-15.36 221.867h63.147v-221.867zM290.134 31.147h-63.147v221.867h63.147v-221.867zM370.346 31.147h-47.786v221.867h63.147l-15.36-221.867z" />
<glyph unicode="&#xe611;" d="M476.16 360.534c0 6.827-5.12 11.947-11.947 11.947h-191.147v78.506c0 6.827-5.12 11.947-11.947 11.947h-213.333c-6.827 0-11.947-5.12-11.947-11.947v-443.733h-35.84v-18.774h512v18.774h-35.84v353.28zM366.933 334.933h73.387v-73.386h-73.387v73.387zM366.933 244.48h73.387v-73.386h-73.387v73.387zM366.933 154.026h73.387v-73.387h-73.387v73.387zM274.774 334.933h73.387v-73.386h-73.387v73.387zM274.774 244.48h73.387v-73.386h-73.387v73.387zM274.774 154.026h73.387v-73.387h-73.387v73.387zM163.84 427.094h73.386v-73.387h-73.387v73.387zM163.84 334.933h73.386v-73.386h-73.387v73.387zM163.84 244.48h73.386v-73.386h-73.387v73.387zM163.84 154.026h73.386v-73.387h-73.387v73.387zM73.386 427.094h73.386v-73.387h-73.386v73.387zM73.386 334.933h73.386v-73.386h-73.386v73.387zM73.386 244.48h73.386v-73.386h-73.386v73.387zM73.386 154.026h73.386v-73.387h-73.386v73.387zM128 8.96v54.613h54.613v-54.613h-54.614zM329.387 8.96v54.613h54.613v-54.613h-54.613z" />
<glyph unicode="&#xe612;" d="M5.12 270.080v-76.8c0-11.947 6.827-22.187 18.773-25.6l75.094-25.6-10.24-29.014c-11.947-35.84 6.826-75.094 42.666-88.747l87.040-30.72c35.84-11.947 75.094 6.827 88.747 42.666l10.24 29.014 150.187-52.906c0-10.24 8.534-20.48 20.48-20.48h6.827c10.24 0 20.48 8.534 20.48 20.48v436.906c0 10.24-8.534 20.48-20.48 20.48h-6.827c-10.24 0-20.48-8.534-20.48-20.48v0l-443.733-155.306c-11.947-3.413-18.773-13.654-18.773-23.894zM131.413 96l10.24 29.014 131.413-46.080-10.24-29.014c-3.413-11.947-17.066-18.774-29.013-13.654l-87.040 30.72c-13.654 5.12-20.48 18.774-15.36 29.014zM54.614 239.36c0 6.827 5.12 15.36 11.947 17.067l370.346 129.707c6.827 1.707 11.947-1.707 11.947-8.534v-29.014c0-6.827-5.12-13.654-11.947-17.067l-368.64-105.813c-6.827-1.707-11.947 1.707-11.947 8.534v5.12z" />
<glyph unicode="&#xe613;" d="M312.32 398.080c-102.4-102.4-204.8-204.8-307.2-307.2v-122.88h122.88c102.4 102.4 204.8 204.8 307.2 307.2-40.96 40.96-81.92 81.92-122.88 122.88zM46.080 8.96v71.68c32.426-13.654 58.026-39.254 71.68-71.68h-71.68zM512 352c-18.774 58.026-64.853 104.106-122.88 122.88-15.36-15.36-30.72-30.72-46.080-46.080 40.96-40.96 81.92-81.92 122.88-122.88 15.36 15.36 30.72 30.72 46.080 46.080z" />
<glyph unicode="&#xe614;" d="M273.067 31.147v-49.493c0-5.12-3.413-8.534-8.534-8.534h-37.547c-5.12 0-8.534 3.413-8.534 8.534v49.493c-66.56 8.534-102.4 49.493-104.106 51.2-3.413 3.413-3.413 8.534 0 11.947l29.014 37.546c1.707 1.707 3.413 3.413 6.827 3.413s5.12 0 6.827-1.707c0 0 40.96-37.546 90.454-37.546 27.306 0 58.026 15.36 58.026 46.080 0 27.306-34.134 40.96-71.68 56.32-51.2 20.48-114.347 46.080-114.347 116.053 0 52.906 40.96 95.573 100.693 105.813v51.2c-3.413 5.12 1.707 8.534 5.12 8.534h37.546c6.827 0 10.24-3.413 10.24-8.534v-49.494c58.026-6.826 88.746-37.546 88.746-39.253 3.413-3.413 3.413-6.827 1.707-10.24l-22.187-42.666c-1.707-1.707-3.413-3.413-6.827-3.413s-5.12 0-6.827 1.707c0 0-34.134 30.72-76.8 30.72-35.84 0-61.44-17.067-61.44-44.374 0-30.72 34.133-42.666 75.094-59.733 52.906-20.48 110.933-42.666 110.933-110.933-1.707-58.026-42.666-102.4-102.4-112.64z" />
<glyph unicode="&#xe615;" d="M256 480c-141.654 0-256-114.346-256-256s114.347-256 256-256c141.654 0 256 114.346 256 256s-114.346 256-256 256zM256 418.56c107.52 0 194.56-87.040 194.56-194.56s-87.040-194.56-194.56-194.56z" />
<glyph unicode="&#xe616;" d="M247.466 457.813c0 3.413-1.707 10.24-6.827 11.947 0 0-44.374 5.12-51.2-34.133 0 0-13.654-46.080 25.6-121.174l-40.96 3.413h-58.026c-27.306 0-56.32-40.96-51.2-69.973l22.186-160.427c13.653-32.426 37.546-56.32 63.146-56.32h186.026l47.786 167.253c-17.067 13.654-119.466 128-136.534 259.413zM448.853 198.4l-71.68-218.453 30.72-10.24 71.68 218.453-30.72 10.24z" />
<glyph unicode="&#xe617;" d="M476.16 196.693l-46.080 160.427c-15.36 30.72-39.254 54.613-63.147 54.613h-186.026l-47.786-141.654c15.36-13.654 117.76-155.306 134.827-286.72 0-3.413 1.707-10.24 6.827-10.24 0 0 44.373-5.12 51.2 34.133 0 0 13.654 46.080-25.6 121.173l40.96-3.413h83.627c27.307 0 58.026 42.666 51.2 71.68zM105.814 473.173l-69.974-216.746 30.72-10.24 71.68 218.453-32.427 8.534z" />
<glyph unicode="&#xe618;" d="M191.147 263.254c0-5.12-6.827-6.827-10.24-6.827-6.827 0-6.827 0-8.534 6.827v0c1.707 3.413 15.36 1.707 18.774 0zM249.173 82.346c-1.707 0-1.707 0 0 0-1.707-1.707-1.707-1.707 0 0-1.707-1.707-1.707 0 0 0zM512 229.12c0-136.534-110.933-247.466-247.466-247.466s-247.466 110.933-247.466 247.466c0 136.534 110.933 247.466 247.466 247.466s247.466-110.933 247.466-247.466zM358.4 251.306c1.707 13.654 17.067 23.893 23.894 35.84 3.413 6.827 6.827 8.534 13.654 8.534 8.534 0 15.36 3.413 22.187 6.827s10.24 5.12 15.36-1.707c6.827-8.534 10.24-8.534 22.187-5.12 0 0 0 0 1.707 0-1.707 5.12-3.413 10.24-6.827 17.066-3.413 1.707-8.534 3.413-11.947 8.534-5.12 5.12-15.36 8.534-22.187 1.707-5.12-3.413 0-10.24-8.534-13.654s-32.426-3.413-18.774 10.24c3.413 3.413 15.36 3.413 17.067 6.827 3.413 5.12-5.12 6.827-6.827 10.24s3.413 6.827 1.707 8.534c-1.707 8.534-15.36-3.413-20.48 1.707s3.413 15.36 8.534 18.774c5.12 3.413 11.947 1.707 17.067 5.12 0 0 1.707 1.707 1.707 1.707-11.947 11.947-25.6 22.187-39.254 30.72-6.827-6.827-20.48-8.534-29.014-10.24-6.827-1.707-11.947-1.707-17.067-6.827-5.12-3.413-8.534-10.24-15.36-11.947-15.36-3.413-6.827 17.067-5.12 23.894 3.413 13.654-6.827 15.36-17.067 15.36-5.12 0-8.534 0-11.947 3.413s-6.827 6.827-11.947 5.12c-3.413-1.707-8.534-8.534-8.534-11.947 0-5.12 3.413-3.413 8.534-5.12s10.24-6.827 10.24-13.654c0-5.12-3.413-11.947-10.24-11.947-5.12 0-8.534 6.827-10.24 11.947-3.413 6.827-5.12 6.827-11.947 11.947-11.947 8.534 8.534 15.36 5.12 25.6 0 1.707-1.707 3.413-1.707 3.413-20.48-1.707-39.254-8.534-58.026-15.36 0 0 0 0 0 0 0-5.12-6.827-5.12 0-8.534 1.707-1.707 6.827 0 6.827-3.413 1.707-3.413-3.413-5.12-6.827-6.827-5.12-1.707-15.36 0-15.36 6.827-1.707 0-6.827 0-8.534 0 0 0 0 0 0 0 1.707-1.707 1.707-3.413 3.413-5.12 3.413-5.12 3.413-5.12 10.24-6.827 6.827 0 15.36 0 22.186 1.707 8.534 1.707 20.48 18.774 27.306 5.12 5.12-11.947-10.24-11.947-17.066-15.36-13.654-5.12-8.534-17.066 3.413-20.48 15.36-5.12 20.48 15.36 34.133 17.066 8.534 1.707 17.067-11.946 22.187-17.066 5.12-3.413 10.24-5.12 10.24-11.947 0-5.12-3.413-11.947-10.24-10.24-1.707 6.827-13.654 11.947-18.774 6.827 1.707-1.707 1.707-1.707 5.12-3.413 3.413-13.654-18.774-10.24-25.6-13.654-5.12-3.413-8.534-8.534-11.946-11.947s-8.534-6.827-11.947-10.24c0 0 1.707 0 1.707 1.707 0 0-1.707 0-1.707 0s0 0 0 1.707c-8.534-8.534-10.24-11.947-13.654-22.186-1.707-8.534-6.827-13.654-15.36-13.654 3.413 8.534 0 15.36-8.534 17.066-13.654 5.12-39.254-3.413-37.547-22.186 0-6.827 6.827-15.36 11.946-15.36 6.827 0 20.48 10.24 23.893 0 0-1.707-8.534-3.413-6.827-8.534 1.707-3.413 8.534-1.707 10.24-6.827 1.707-3.413 0-8.534 1.707-11.947 6.827-8.534 18.773 1.707 25.6 3.413 11.947 5.12 22.186 0 30.72-6.827s18.773-10.24 27.306-15.36c6.827-5.12 11.947-11.947 20.48-15.36 10.24-3.413 25.6-3.413 32.426-13.654s-10.24-17.067-11.947-25.6c0-5.12 3.413-10.24 1.707-13.654 0-6.827-5.12-8.534-10.24-11.947s-11.947-5.12-15.36-10.24c-1.707-3.413-1.707-8.534-1.707-11.947-3.413-10.24-15.36-17.067-22.186-23.894 0 0 0 0 0 0-1.707 0-1.707-1.707-3.413-1.707 0 0 1.707 1.707 1.707 1.707-1.707-1.707-5.12-3.413-6.827-5.12-3.413-6.827 0-25.6 1.707-32.426 5.12-13.654-5.12-13.654-13.654-6.827-22.186 15.36-23.893 44.373-20.48 69.974 1.707 15.36 5.12 30.72-8.534 42.666-10.24 8.534-29.013 20.48-27.306 35.84 1.707 8.534 15.36 20.48 8.534 27.307-3.413 3.413-8.534 6.827-13.654 10.24-3.413 3.413-5.12 6.827-10.24 8.534-3.413 1.707-6.827 5.12-11.946 6.827-6.827 3.413-13.653 3.413-22.186 5.12-17.067 3.413-17.067 10.24-22.186 25.6-6.826 0-6.826 0-8.534 6.827 0 5.12-3.413 8.534-6.826 11.946-5.12 5.12-11.947 10.24-15.36 17.066-8.534-23.893-13.654-47.786-13.654-75.093 0-112.64 90.454-203.094 203.094-203.094 78.507 0 145.066 44.373 179.2 107.52-6.827 11.947 6.827 22.187 6.827 35.84 0 11.947-18.774 15.36-18.774 29.014 0 20.48-13.654 18.774-29.014 11.947-17.067-8.534-27.307-1.707-35.84 13.654 3.413 3.413-3.413 13.654 0 23.893z" />
<glyph unicode="&#xe619;" d="M262.827 292.267c30.72 0 56.32 25.6 56.32 56.32v75.094c0 30.72-25.6 56.32-56.32 56.32s-58.026-25.6-58.026-56.32v-75.094c0-30.72 25.6-56.32 58.026-56.32zM262.827 449.28c15.36 0 29.014-11.946 29.014-29.013 0-15.36-11.947-29.014-29.014-29.014-15.36 0-29.013 11.947-29.013 29.014 0 15.36 13.654 29.013 29.013 29.013zM411.307 398.080h-69.974v-49.493c0-44.374-35.84-80.214-80.214-80.214s-80.214 35.84-80.214 80.214v49.493h-68.266c-23.894 0-44.373-20.48-44.373-46.080v-339.627c0-23.894 20.48-44.373 46.080-44.373h296.96c25.6 0 46.080 20.48 46.080 46.080v337.92c0 25.6-20.48 46.080-46.080 46.080zM262.827 208.64c29.014 0 51.2-23.894 51.2-51.2 0-29.014-23.894-51.2-51.2-51.2-29.013 0-51.2 23.894-51.2 51.2s22.186 51.2 51.2 51.2zM363.52 26.026h-201.387v23.894c0 25.6 52.906 49.493 78.507 49.493h46.080c25.6 0 78.507-23.894 78.507-49.493v-23.894z" />
<glyph unicode="&#xe61a;" d="M510.293 309.333c0 15.36-6.827 27.307-15.36 37.547 8.534 8.534 13.654 18.774 13.654 30.72 0 23.893-18.774 42.666-42.666 42.666-13.654 0-25.6-6.827-34.133-17.067-10.24 10.24-23.894 17.067-39.254 17.067-18.774 0-34.134-8.534-44.373-22.187-10.24 13.654-25.6 22.187-44.373 22.187s-34.134-8.534-44.373-22.187c-10.24 13.654-25.6 22.187-44.374 22.187s-34.133-8.534-44.374-22.187c-8.534 13.654-25.6 23.894-44.374 23.894-17.067 0-32.427-8.534-42.666-22.186-6.826 11.946-20.48 20.48-35.84 20.48-23.893 0-42.666-18.773-42.666-42.666 0-11.947 5.12-22.187 11.947-30.72-10.24-10.24-17.067-23.893-17.067-37.546 0-17.066 8.534-32.426 22.186-42.666-13.653-10.24-22.186-25.6-22.186-42.666s8.534-32.426 22.186-42.666c-13.653-8.534-22.186-25.6-22.186-42.666 0-13.654 5.12-27.306 15.36-35.84-10.24-8.534-15.36-18.774-15.36-32.426 0-23.894 18.773-42.666 42.666-42.666 13.654 0 27.306 6.827 34.133 17.067 10.24-10.24 25.6-18.774 42.666-18.774 18.773 0 34.133 8.534 44.374 22.187 10.24-13.654 25.6-22.187 44.374-22.187s34.133 8.534 44.374 22.187c10.24-13.654 25.6-22.187 44.373-22.187s34.134 8.534 44.373 22.187c10.24-13.654 25.6-22.187 44.373-22.187 17.067 0 32.426 8.534 42.666 22.187 6.827-11.947 20.48-20.48 35.84-20.48 23.894 0 42.666 18.774 42.666 42.666 0 11.947-5.12 22.187-11.947 30.72 10.24 10.24 17.067 23.894 17.067 39.254 0 17.067-8.534 32.426-22.187 42.666 13.654 10.24 22.187 25.6 22.187 42.666s-8.534 32.427-22.187 42.666c11.947 6.827 20.48 23.893 20.48 40.96zM462.507 75.52h-413.014v296.96h413.014v-296.96zM117.76 300.8h276.48v-27.306h-276.48v27.306zM168.96 227.413h172.374v-27.307h-172.374v27.306zM377.173 189.866l-6.827-6.827h-8.534l-3.413-8.534-10.24-3.413 1.707-10.24-6.827-5.12 3.413-8.534-3.413-8.534 6.827-6.827-1.707-10.24 10.24-1.707 3.413-10.24 8.534 1.707 6.827-8.534 8.534 5.12 8.534-5.12 5.12 8.534 10.24-1.707 3.413 10.24 8.534 1.707v10.24l6.827 6.827-5.12 8.534 5.12 8.534-6.827 5.12v10.24l-8.534 3.413-3.413 8.534h-10.24l-5.12 6.827-8.534-5.12z" />
<glyph unicode="&#xe61b;" d="M0 404.906v-375.466h512v375.466h-512zM477.866 63.574h-85.334c-27.306 51.2-80.214 85.334-141.654 85.334s-114.346-34.134-141.654-85.334h-75.094v307.2h443.733v-307.2zM325.974 227.413c0-41.473-33.62-75.094-75.094-75.094s-75.094 33.62-75.094 75.094c0 41.473 33.62 75.094 75.094 75.094s75.094-33.62 75.094-75.094z" />
<glyph unicode="&#xe61c;" d="M494.933 53.334l-90.454 155.306c-10.24 18.774-29.014 49.493-39.253 68.267l-90.454 155.306c-10.24 18.774-29.013 18.774-39.254 0l-90.453-155.306c-10.24-18.774-29.013-49.493-39.254-68.267l-88.746-155.307c-10.24-18.774-1.707-34.134 20.48-34.134h438.613c20.48 0 30.72 15.36 18.774 34.134zM278.187 72.106c-6.827-6.827-13.654-10.24-23.893-10.24-8.534 0-17.066 3.413-23.893 10.24s-10.24 13.654-10.24 22.187c0 8.534 3.413 17.067 10.24 22.187 6.827 6.827 15.36 10.24 23.893 10.24s17.066-3.413 23.893-10.24c6.827-6.827 10.24-13.654 10.24-22.187s-3.413-17.067-10.24-22.187zM285.014 268.374c-1.707-8.534-3.413-17.067-6.827-27.307-1.707-10.24-5.12-22.187-8.534-37.546s-6.827-34.133-10.24-56.32h-13.654c-3.413 22.187-6.827 40.96-10.24 56.32s-5.12 27.306-8.534 37.547c-1.707 8.534-3.413 18.773-6.827 27.306-1.707 8.534-3.413 15.36-3.413 20.48 0 8.534 3.413 17.066 10.24 22.186 6.827 6.827 15.36 10.24 23.893 10.24s17.066-3.413 23.893-10.24c6.827-6.827 10.24-13.654 10.24-22.186 3.413-6.827 1.707-13.654 0-20.48z" />
<glyph unicode="&#xe61d;" d="M53.688 63.94l362.035 362.035 48.272-48.272-362.035-362.035-48.272 48.272zM102.767 425.175l362.035-362.035-48.272-48.272-362.035 362.035 48.272 48.272z" />
<glyph unicode="&#xe61e;" d="M259.413 251.306c-11.947 0-22.186-10.24-22.186-22.186s10.24-22.187 22.186-22.187c11.947 0 22.187 10.24 22.187 22.186s-10.24 20.48-22.187 22.186zM259.413 478.293c-138.24 0-252.587-112.64-252.587-252.587s112.64-252.587 252.587-252.587c139.947 0 252.587 112.64 252.587 252.587s-112.64 252.587-252.587 252.587zM78.507 196.693c-17.067 0-32.426 13.654-32.426 32.427 0 17.066 13.654 32.427 32.426 32.427 17.067 0 32.426-13.654 32.426-32.427-1.707-18.773-15.36-32.427-32.427-32.427zM259.413 12.373c-17.066 0-32.427 13.654-32.427 32.426 0 17.067 13.654 32.426 32.427 32.426 17.067 0 32.426-13.654 32.426-32.426s-15.36-32.426-32.426-32.426zM423.253 201.813h-122.88c-8.534-15.36-25.6-23.894-42.666-23.894-27.306 0-49.493 22.187-49.493 49.493 0 18.774 10.24 34.133 25.6 42.666v141.654c0 13.654 11.946 25.6 25.6 25.6s25.6-11.947 25.6-25.6v-141.654c6.827-5.12 13.654-10.24 17.067-17.066h121.173c13.654 0 25.6-11.946 25.6-25.6s-10.24-25.6-25.6-25.6z" />
<glyph unicode="&#xe61f;" d="M40.96 164.267v0 0 0zM138.24 164.267v0 0 0zM375.466 362.24c-49.493 0-92.16-27.307-114.346-66.56h-220.16l-40.96-40.96v-49.494l40.96-40.96 49.493 49.493 49.493-49.493 49.493 49.493 49.493-49.493h23.894c22.187-39.253 64.853-66.56 114.346-66.56 73.387 0 133.12 59.733 133.12 133.12-3.413 71.68-61.44 131.413-134.827 131.413zM423.253 186.454c-23.894 0-44.373 20.48-44.373 44.374s20.48 44.374 44.373 44.374c23.894 0 44.373-20.48 44.373-44.374 0-25.6-20.48-44.374-44.373-44.374z" />
<glyph unicode="&#xe620;" d="M256 32.853l247.466 346.454h-494.933z" />
<glyph unicode="&#xe621;" d="M317.44 177.92h-17.067c54.613 27.306 95.574 75.094 95.574 136.534 0 78.507-63.147 143.36-141.654 143.36s-141.654-64.853-141.654-143.36c0-61.44 39.254-109.226 95.573-134.827h-17.066c-69.974 0-191.147-51.2-191.147-121.173v-66.56h508.587v66.56c0 68.267-119.466 119.466-191.147 119.466z" />
</font>
</defs>
</svg>
